<svg width="312" height="207" viewBox="0 0 312 207" fill="none" xmlns="http://www.w3.org/2000/svg">
<path d="M363.498 123.397C363.498 179.068 283.479 142.705 227.724 142.705C171.97 142.705 50.7161 183.314 50.7161 127.643C50.7161 71.9715 212.302 50.4297 268.057 50.4297C323.812 50.4297 363.498 67.7256 363.498 123.397Z" fill="url(#paint0_linear)"/>
<g filter="url(#filter0_f)">
<path d="M363.498 123.397C363.498 179.068 283.479 142.705 227.724 142.705C171.97 142.705 50.7161 183.314 50.7161 127.643C50.7161 71.9715 212.302 50.4297 268.057 50.4297C323.812 50.4297 363.498 67.7256 363.498 123.397Z" fill="url(#paint1_linear)"/>
</g>
<defs>
<filter id="filter0_f" x="0.716064" y="0.429688" width="412.782" height="206.57" filterUnits="userSpaceOnUse" color-interpolation-filters="sRGB">
<feFlood flood-opacity="0" result="BackgroundImageFix"/>
<feBlend mode="normal" in="SourceGraphic" in2="BackgroundImageFix" result="shape"/>
<feGaussianBlur stdDeviation="25" result="effect1_foregroundBlur"/>
</filter>
<linearGradient id="paint0_linear" x1="207.107" y1="50.4297" x2="207.107" y2="228.444" gradientUnits="userSpaceOnUse">
<stop stop-color="#E2CB9D"/>
<stop offset="1" stop-color="#C4C4C4" stop-opacity="0"/>
</linearGradient>
<linearGradient id="paint1_linear" x1="207.107" y1="50.4297" x2="207.107" y2="228.444" gradientUnits="userSpaceOnUse">
<stop stop-color="#E2CB9D"/>
<stop offset="1" stop-color="#C4C4C4" stop-opacity="0"/>
</linearGradient>
</defs>
</svg>
