<svg width="20" height="16" viewBox="0 0 20 16" fill="none" xmlns="http://www.w3.org/2000/svg">
<rect x="18" y="2" width="2" height="16" rx="1" transform="rotate(90 18 2)" fill="#DBC498"/>
<g filter="url(#filter0_f)">
<rect x="18" y="2" width="2" height="16" rx="1" transform="rotate(90 18 2)" fill="#DBC498"/>
</g>
<rect x="18" y="7" width="2" height="16" rx="1" transform="rotate(90 18 7)" fill="#DBC498"/>
<g filter="url(#filter1_f)">
<rect x="18" y="7" width="2" height="16" rx="1" transform="rotate(90 18 7)" fill="#DBC498"/>
</g>
<rect x="18" y="12" width="2" height="16" rx="1" transform="rotate(90 18 12)" fill="#DBC498"/>
<g filter="url(#filter2_f)">
<rect x="18" y="12" width="2" height="16" rx="1" transform="rotate(90 18 12)" fill="#DBC498"/>
</g>
<defs>
<filter id="filter0_f" x="0" y="0" width="20" height="6" filterUnits="userSpaceOnUse" color-interpolation-filters="sRGB">
<feFlood flood-opacity="0" result="BackgroundImageFix"/>
<feBlend mode="normal" in="SourceGraphic" in2="BackgroundImageFix" result="shape"/>
<feGaussianBlur stdDeviation="1" result="effect1_foregroundBlur"/>
</filter>
<filter id="filter1_f" x="0" y="5" width="20" height="6" filterUnits="userSpaceOnUse" color-interpolation-filters="sRGB">
<feFlood flood-opacity="0" result="BackgroundImageFix"/>
<feBlend mode="normal" in="SourceGraphic" in2="BackgroundImageFix" result="shape"/>
<feGaussianBlur stdDeviation="1" result="effect1_foregroundBlur"/>
</filter>
<filter id="filter2_f" x="0" y="10" width="20" height="6" filterUnits="userSpaceOnUse" color-interpolation-filters="sRGB">
<feFlood flood-opacity="0" result="BackgroundImageFix"/>
<feBlend mode="normal" in="SourceGraphic" in2="BackgroundImageFix" result="shape"/>
<feGaussianBlur stdDeviation="1" result="effect1_foregroundBlur"/>
</filter>
</defs>
</svg>
