<svg width="320" height="447" viewBox="0 0 320 447" fill="none" xmlns="http://www.w3.org/2000/svg">
<path d="M-19.8676 184.03C-25.3065 96.4243 94.7579 233.941 172.659 185.354C270.258 124.482 377.134 151.955 379.052 195.229C380.97 238.503 277.258 296.234 187.088 300.23C96.9173 304.226 -15.5743 253.183 -19.8676 184.03Z" fill="url(#paint0_linear)"/>
<g filter="url(#filter0_f)">
<path d="M-20.5421 183.881C-25.9811 96.2748 94.0833 233.791 171.984 185.205C269.584 124.332 376.46 151.806 378.377 195.08C380.295 238.354 276.584 296.084 186.413 300.081C96.2427 304.077 -16.2488 253.034 -20.5421 183.881Z" fill="url(#paint1_linear)"/>
</g>
<defs>
<filter id="filter0_f" x="-71.8488" y="87.1313" width="504.494" height="271.876" filterUnits="userSpaceOnUse" color-interpolation-filters="sRGB">
<feFlood flood-opacity="0" result="BackgroundImageFix"/>
<feBlend mode="normal" in="SourceGraphic" in2="BackgroundImageFix" result="shape"/>
<feGaussianBlur stdDeviation="25" result="effect1_foregroundBlur"/>
</filter>
<linearGradient id="paint0_linear" x1="184.491" y1="300.345" x2="177.655" y2="146.092" gradientUnits="userSpaceOnUse">
<stop stop-color="#C4C4C4" stop-opacity="0"/>
<stop offset="1" stop-color="#E2CB9D"/>
</linearGradient>
<linearGradient id="paint1_linear" x1="183.817" y1="300.196" x2="176.98" y2="145.943" gradientUnits="userSpaceOnUse">
<stop stop-color="#C4C4C4" stop-opacity="0"/>
<stop offset="1" stop-color="#E2CB9D"/>
</linearGradient>
</defs>
</svg>
