<svg width="320" height="368" viewBox="0 0 320 368" fill="none" xmlns="http://www.w3.org/2000/svg">
<path d="M-261.292 115.876C-336.677 29.0812 -175.252 -240.123 -72.227 -307.341C30.7981 -374.56 359.868 -498.595 336.994 -371.096C265.632 -121.138 504.854 24.7785 243.805 55.2519C66.1335 75.9923 33.1757 -30.3664 -211.563 162.884C-216.702 166.942 -222.497 170.737 -228.456 173.841C-321.507 222.3 -215.087 169.076 -261.292 115.876Z" fill="url(#paint0_linear)"/>
<g filter="url(#filter0_f)">
<path d="M-257.522 115.54C-332.907 28.7451 -171.482 -240.459 -68.4568 -307.677C34.5683 -374.895 363.638 -498.932 340.764 -371.432C269.402 -121.474 500.302 24.2201 239.253 54.6934C61.5826 75.4337 36.7714 -30.706 -207.792 162.545C-212.929 166.604 -218.727 170.401 -224.687 173.504C-317.737 221.964 -211.317 168.74 -257.522 115.54Z" fill="url(#paint1_linear)"/>
</g>
<defs>
<filter id="filter0_f" x="-326.934" y="-476.682" width="744.264" height="719.211" filterUnits="userSpaceOnUse" color-interpolation-filters="sRGB">
<feFlood flood-opacity="0" result="BackgroundImageFix"/>
<feBlend mode="normal" in="SourceGraphic" in2="BackgroundImageFix" result="shape"/>
<feGaussianBlur stdDeviation="25" result="effect1_foregroundBlur"/>
</filter>
<linearGradient id="paint0_linear" x1="278.825" y1="150.877" x2="-35.6907" y2="-331.179" gradientUnits="userSpaceOnUse">
<stop stop-color="#E2CB9D"/>
<stop offset="1" stop-color="#E2CB9D" stop-opacity="0"/>
</linearGradient>
<linearGradient id="paint1_linear" x1="282.595" y1="150.541" x2="-31.9212" y2="-331.515" gradientUnits="userSpaceOnUse">
<stop stop-color="#E2CB9D"/>
<stop offset="1" stop-color="#E2CB9D" stop-opacity="0"/>
</linearGradient>
</defs>
</svg>
