<svg width="20" height="20" viewBox="0 0 20 20" fill="none" xmlns="http://www.w3.org/2000/svg">
<path d="M15.8713 7.48894C15.8436 6.87181 15.7419 6.44754 15.5963 6.07991C15.4461 5.68967 15.215 5.34029 14.9123 5.04985C14.6164 4.75489 14.2582 4.5257 13.8654 4.38052C13.4888 4.23756 13.0589 4.13777 12.4303 4.11056C11.7971 4.08104 11.5961 4.07422 9.98997 4.07422C8.38387 4.07422 8.18283 4.08104 7.55193 4.10825C6.92337 4.13546 6.49125 4.23535 6.11689 4.37822C5.71934 4.5257 5.36349 4.75259 5.06768 5.04985C4.76725 5.34029 4.5339 5.69197 4.38595 6.07769C4.24034 6.44754 4.1387 6.86951 4.11099 7.48664C4.08093 8.10837 4.07397 8.30575 4.07397 9.88265C4.07397 11.4595 4.08093 11.6569 4.10864 12.2764C4.13635 12.8935 4.23809 13.3178 4.38369 13.6854C4.5339 14.0756 4.76725 14.425 5.06768 14.7154C5.36349 15.0104 5.72169 15.2396 6.11455 15.3848C6.49125 15.5277 6.92103 15.6275 7.54967 15.6547C8.18049 15.682 8.38161 15.6888 9.98771 15.6888C11.5938 15.6888 11.7948 15.682 12.4257 15.6547C13.0543 15.6275 13.4864 15.5277 13.8608 15.3848C14.6558 15.083 15.2844 14.4659 15.5917 13.6854C15.7372 13.3155 15.839 12.8935 15.8667 12.2764C15.8944 11.6569 15.9014 11.4595 15.9014 9.88265C15.9014 8.30575 15.899 8.10837 15.8713 7.48894ZM14.806 12.231C14.7806 12.7982 14.6835 13.1045 14.6026 13.3087C14.4039 13.8147 13.9948 14.2163 13.4795 14.4114C13.2715 14.4909 12.9573 14.5861 12.3818 14.611C11.7578 14.6383 11.5707 14.6451 9.99231 14.6451C8.41393 14.6451 8.22445 14.6383 7.60275 14.611C7.02502 14.5861 6.71304 14.4909 6.50506 14.4114C6.2486 14.3184 6.01516 14.1709 5.82568 13.978C5.62925 13.7897 5.47904 13.5628 5.38426 13.311C5.30337 13.1068 5.20633 12.7982 5.18097 12.2333C5.15316 11.6207 5.1463 11.4369 5.1463 9.88717C5.1463 8.33748 5.15316 8.15145 5.18097 7.54114C5.20633 6.97391 5.30337 6.66761 5.38426 6.46341C5.47904 6.21152 5.62925 5.98241 5.82803 5.79629C6.01976 5.60343 6.25086 5.45595 6.50741 5.36298C6.71539 5.28357 7.02971 5.18829 7.6051 5.1633C8.22905 5.13609 8.41627 5.12927 9.99457 5.12927C11.5753 5.12927 11.7624 5.13609 12.3841 5.1633C12.9619 5.18829 13.2738 5.28357 13.4818 5.36298C13.7383 5.45595 13.9717 5.60343 14.1612 5.79629C14.3576 5.98463 14.5078 6.21152 14.6026 6.46341C14.6835 6.66761 14.7806 6.97613 14.806 7.54114C14.8337 8.15375 14.8407 8.33748 14.8407 9.88717C14.8407 11.4369 14.8337 11.6184 14.806 12.231Z" fill="#E2CB9D"/>
<path d="M9.99005 6.89893C8.31237 6.89893 6.95117 8.23528 6.95117 9.88255C6.95117 11.5298 8.31237 12.8662 9.99005 12.8662C11.6678 12.8662 13.0289 11.5298 13.0289 9.88255C13.0289 8.23528 11.6678 6.89893 9.99005 6.89893ZM9.99005 11.818C8.90166 11.818 8.01881 10.9512 8.01881 9.88255C8.01881 8.81386 8.90166 7.94715 9.99005 7.94715C11.0785 7.94715 11.9613 8.81386 11.9613 9.88255C11.9613 10.9512 11.0785 11.818 9.99005 11.818Z" fill="#E2CB9D"/>
<path d="M13.8585 6.78101C13.8585 7.16567 13.5409 7.47755 13.149 7.47755C12.7572 7.47755 12.4396 7.16567 12.4396 6.78101C12.4396 6.39627 12.7572 6.08447 13.149 6.08447C13.5409 6.08447 13.8585 6.39627 13.8585 6.78101Z" fill="#E2CB9D"/>
<rect x="0.5" y="0.5" width="19" height="19" rx="4.5" stroke="#E2CB9D"/>
</svg>
