<svg width="49" height="56" viewBox="0 0 49 56" fill="none" xmlns="http://www.w3.org/2000/svg">
<path d="M24.5 8C33.6131 8 41 15.37 41 24.4623C41 31.4186 36.1008 38.9997 26.4292 47.2866C25.8915 47.7475 25.2058 48.0006 24.4968 48C23.7879 47.9994 23.1027 47.745 22.5657 47.2832L21.926 46.7294C12.6826 38.6586 8 31.2633 8 24.4623C8 15.37 15.3869 8 24.5 8ZM24.5 18.1306C22.8169 18.1306 21.2027 18.7977 20.0126 19.9851C18.8225 21.1725 18.1538 22.783 18.1538 24.4623C18.1538 26.1415 18.8225 27.752 20.0126 28.9394C21.2027 30.1268 22.8169 30.7939 24.5 30.7939C26.1831 30.7939 27.7973 30.1268 28.9874 28.9394C30.1775 27.752 30.8462 26.1415 30.8462 24.4623C30.8462 22.783 30.1775 21.1725 28.9874 19.9851C27.7973 18.7977 26.1831 18.1306 24.5 18.1306Z" fill="#E2CB9D"/>
<g filter="url(#filter0_f)">
<path d="M24.5 8C33.6131 8 41 15.37 41 24.4623C41 31.4186 36.1008 38.9997 26.4292 47.2866C25.8915 47.7475 25.2058 48.0006 24.4968 48C23.7879 47.9994 23.1027 47.745 22.5657 47.2832L21.926 46.7294C12.6826 38.6586 8 31.2633 8 24.4623C8 15.37 15.3869 8 24.5 8ZM24.5 18.1306C22.8169 18.1306 21.2027 18.7977 20.0126 19.9851C18.8225 21.1725 18.1538 22.783 18.1538 24.4623C18.1538 26.1415 18.8225 27.752 20.0126 28.9394C21.2027 30.1268 22.8169 30.7939 24.5 30.7939C26.1831 30.7939 27.7973 30.1268 28.9874 28.9394C30.1775 27.752 30.8462 26.1415 30.8462 24.4623C30.8462 22.783 30.1775 21.1725 28.9874 19.9851C27.7973 18.7977 26.1831 18.1306 24.5 18.1306Z" fill="#E2CB9D"/>
</g>
<defs>
<filter id="filter0_f" x="0" y="0" width="49" height="56" filterUnits="userSpaceOnUse" color-interpolation-filters="sRGB">
<feFlood flood-opacity="0" result="BackgroundImageFix"/>
<feBlend mode="normal" in="SourceGraphic" in2="BackgroundImageFix" result="shape"/>
<feGaussianBlur stdDeviation="4" result="effect1_foregroundBlur"/>
</filter>
</defs>
</svg>
