<svg width="52" height="52" viewBox="0 0 52 52" fill="none" xmlns="http://www.w3.org/2000/svg">
<path d="M44.472 38.5983L39.1144 43.9129C38.3236 44.724 37.2753 44.9988 36.2544 45C31.7396 44.8647 27.4722 42.647 23.9683 40.3699C18.217 36.1857 12.9398 30.9976 9.62783 24.728C8.35756 22.0989 6.86707 18.7445 7.00947 15.8099C7.02217 14.706 7.31965 13.6226 8.0971 12.9111L13.4547 7.55622C14.5672 6.60993 15.643 6.93711 16.355 8.03936L20.6652 16.2126C21.1188 17.1809 20.8586 18.2183 20.1817 18.9102L18.2079 20.883C18.086 21.05 18.0084 21.24 18.0065 21.4467C18.7634 24.3766 21.0564 27.077 23.082 28.9355C25.1077 30.7939 27.285 33.3117 30.1113 33.9078C30.4607 34.0052 30.8886 34.0395 31.1385 33.8071L33.4347 31.4719C34.2262 30.872 35.3691 30.5788 36.2141 31.0693H36.2544L44.0288 35.6592C45.1701 36.3746 45.2892 37.7572 44.472 38.5983Z" fill="#E2CB9D"/>
<g filter="url(#filter0_f)">
<path d="M44.472 38.5983L39.1144 43.9129C38.3236 44.724 37.2753 44.9988 36.2544 45C31.7396 44.8647 27.4722 42.647 23.9683 40.3699C18.217 36.1857 12.9398 30.9976 9.62783 24.728C8.35756 22.0989 6.86707 18.7445 7.00947 15.8099C7.02217 14.706 7.31965 13.6226 8.0971 12.9111L13.4547 7.55622C14.5672 6.60993 15.643 6.93711 16.355 8.03936L20.6652 16.2126C21.1188 17.1809 20.8586 18.2183 20.1817 18.9102L18.2079 20.883C18.086 21.05 18.0084 21.24 18.0065 21.4467C18.7634 24.3766 21.0564 27.077 23.082 28.9355C25.1077 30.7939 27.285 33.3117 30.1113 33.9078C30.4607 34.0052 30.8886 34.0395 31.1385 33.8071L33.4347 31.4719C34.2262 30.872 35.3691 30.5788 36.2141 31.0693H36.2544L44.0288 35.6592C45.1701 36.3746 45.2892 37.7572 44.472 38.5983Z" fill="#E2CB9D"/>
</g>
<defs>
<filter id="filter0_f" x="0" y="0" width="52" height="52" filterUnits="userSpaceOnUse" color-interpolation-filters="sRGB">
<feFlood flood-opacity="0" result="BackgroundImageFix"/>
<feBlend mode="normal" in="SourceGraphic" in2="BackgroundImageFix" result="shape"/>
<feGaussianBlur stdDeviation="3.5" result="effect1_foregroundBlur"/>
</filter>
</defs>
</svg>
