<svg width="1058" height="837" viewBox="0 0 1058 837" fill="none" xmlns="http://www.w3.org/2000/svg">
<path d="M1113.84 454.992C1141.92 486.625 1132.91 536.392 1099.38 562.175C970.87 660.996 582.593 668.463 471.5 683.5C344.081 700.747 146.216 668.359 137.399 512.373C133.519 338.215 117.67 141.139 362.381 241.46C527.084 308.982 521.798 437.057 833.002 366.918C846.837 363.8 861.144 361.609 875.316 362.143C965.964 365.558 1068.49 403.885 1113.84 454.992Z" fill="url(#paint0_linear)"/>
<g filter="url(#filter0_f)">
<path d="M1114.75 454.675C1142.83 486.308 1133.82 536.075 1100.29 561.858C971.781 660.679 583.503 668.147 472.41 683.183C344.991 700.43 147.127 668.042 138.309 512.056C134.429 337.898 118.58 140.822 363.291 241.144C527.994 308.665 522.709 436.74 833.912 366.601C847.747 363.483 862.054 361.292 876.226 361.826C966.874 365.241 1069.4 403.568 1114.75 454.675Z" fill="url(#paint1_linear)"/>
</g>
<defs>
<filter id="filter0_f" x="0" y="0.756348" width="1246.32" height="836.056" filterUnits="userSpaceOnUse" color-interpolation-filters="sRGB">
<feFlood flood-opacity="0" result="BackgroundImageFix"/>
<feBlend mode="normal" in="SourceGraphic" in2="BackgroundImageFix" result="shape"/>
<feGaussianBlur stdDeviation="50" result="effect1_foregroundBlur"/>
</filter>
<linearGradient id="paint0_linear" x1="409.089" y1="206.944" x2="496.256" y2="850.939" gradientUnits="userSpaceOnUse">
<stop stop-color="#4A5251"/>
<stop offset="1" stop-color="#E2CB9D"/>
</linearGradient>
<linearGradient id="paint1_linear" x1="409.999" y1="206.627" x2="497.166" y2="850.622" gradientUnits="userSpaceOnUse">
<stop stop-color="#4A5251"/>
<stop offset="1" stop-color="#E2CB9D"/>
</linearGradient>
</defs>
</svg>
